<svg width="18" height="18" viewBox="0 0 18 18" fill="none" xmlns="http://www.w3.org/2000/svg">
<path d="M6.42668 16.8846C7.03885 16.8846 7.53512 16.3883 7.53512 15.7762C7.53512 15.164 7.03885 14.6677 6.42668 14.6677C5.8145 14.6677 5.31824 15.164 5.31824 15.7762C5.31824 16.3883 5.8145 16.8846 6.42668 16.8846Z" fill="black"/>
<path d="M13.1611 16.8846C13.7733 16.8846 14.2695 16.3883 14.2695 15.7762C14.2695 15.164 13.7733 14.6677 13.1611 14.6677C12.5489 14.6677 12.0526 15.164 12.0526 15.7762C12.0526 16.3883 12.5489 16.8846 13.1611 16.8846Z" fill="black"/>
<path d="M16.1563 3.7655C16.1105 3.70899 16.0527 3.66333 15.9871 3.63182C15.9215 3.6003 15.8497 3.58371 15.777 3.58322L5.52021 3.58322L5.84043 4.5685H15.1316L13.8163 10.4802H6.42667L4.1753 3.35168C4.15095 3.27604 4.10866 3.20742 4.05205 3.15166C3.99543 3.0959 3.92616 3.05466 3.85016 3.03147L1.83034 2.41074C1.76823 2.39166 1.70297 2.38499 1.63829 2.39113C1.57361 2.39726 1.51077 2.41608 1.45336 2.4465C1.33741 2.50794 1.25062 2.61292 1.21207 2.73835C1.17353 2.86378 1.18639 2.99938 1.24783 3.11533C1.30927 3.23127 1.41425 3.31807 1.53968 3.35661L3.30826 3.89851L5.56947 11.0418L4.76154 11.7019L4.6975 11.766C4.49765 11.9963 4.38438 12.2891 4.37718 12.5939C4.36999 12.8987 4.46933 13.1965 4.65809 13.436C4.79236 13.5993 4.96299 13.7289 5.15632 13.8145C5.34964 13.9 5.56031 13.9391 5.77146 13.9287H13.9936C14.1243 13.9287 14.2496 13.8768 14.342 13.7844C14.4344 13.692 14.4863 13.5667 14.4863 13.436C14.4863 13.3054 14.4344 13.1801 14.342 13.0877C14.2496 12.9953 14.1243 12.9434 13.9936 12.9434H5.69263C5.6359 12.9414 5.58063 12.9249 5.53216 12.8954C5.48369 12.8658 5.44365 12.8243 5.41591 12.7748C5.38818 12.7253 5.37369 12.6694 5.37383 12.6126C5.37398 12.5559 5.38876 12.5001 5.41675 12.4507L6.60402 11.4655H14.2104C14.3243 11.4682 14.4356 11.4315 14.5254 11.3614C14.6152 11.2914 14.678 11.1923 14.703 11.0812L16.2647 4.18425C16.2797 4.1108 16.2777 4.03491 16.2589 3.96234C16.2401 3.88978 16.205 3.82245 16.1563 3.7655Z" fill="black"/>
</svg>
