<svg width="18" height="18" viewBox="0 0 18 18" fill="none" xmlns="http://www.w3.org/2000/svg">
<path fill-rule="evenodd" clip-rule="evenodd" d="M5.28151 12.5784C7.71053 12.2235 9.38299 12.254 11.8152 12.5908C11.9914 12.6163 12.1523 12.7047 12.2683 12.8397C12.3844 12.9747 12.4477 13.147 12.4465 13.325C12.4465 13.4953 12.388 13.6607 12.2822 13.7899C12.0979 14.0151 11.9091 14.2366 11.7158 14.4542H12.653C12.7119 14.3839 12.7712 14.3122 12.8312 14.2395C13.0417 13.9814 13.1565 13.6584 13.1562 13.3254C13.1562 12.6068 12.6317 11.9875 11.9124 11.8882C9.42274 11.5436 7.6825 11.5106 5.17895 11.8765C4.4522 11.9826 3.92984 12.6114 3.92984 13.3349C3.92984 13.6561 4.03452 13.9737 4.23289 14.231C4.29144 14.3069 4.34929 14.3814 4.40677 14.4545H5.32125C5.14149 14.2393 4.96615 14.0204 4.79535 13.798C4.69384 13.6649 4.63909 13.502 4.63956 13.3346C4.63956 12.9524 4.91422 12.632 5.28151 12.5784ZM8.54304 9.13126C8.82264 9.13126 9.09951 9.07619 9.35783 8.96919C9.61615 8.86219 9.85087 8.70536 10.0486 8.50765C10.2463 8.30993 10.4031 8.07522 10.5101 7.81689C10.6171 7.55857 10.6722 7.2817 10.6722 7.0021C10.6722 6.72249 10.6171 6.44562 10.5101 6.1873C10.4031 5.92898 10.2463 5.69426 10.0486 5.49655C9.85087 5.29884 9.61615 5.142 9.35783 5.035C9.09951 4.928 8.82264 4.87293 8.54304 4.87293C7.97834 4.87293 7.43678 5.09725 7.03749 5.49655C6.63819 5.89585 6.41387 6.43741 6.41387 7.0021C6.41387 7.56679 6.63819 8.10835 7.03749 8.50765C7.43678 8.90694 7.97834 9.13126 8.54304 9.13126ZM8.54304 9.84099C9.29596 9.84099 10.018 9.54189 10.5504 9.00949C11.0828 8.4771 11.3819 7.75502 11.3819 7.0021C11.3819 6.24918 11.0828 5.52709 10.5504 4.9947C10.018 4.4623 9.29596 4.16321 8.54304 4.16321C7.79012 4.16321 7.06803 4.4623 6.53564 4.9947C6.00324 5.52709 5.70415 6.24918 5.70415 7.0021C5.70415 7.75502 6.00324 8.4771 6.53564 9.00949C7.06803 9.54189 7.79012 9.84099 8.54304 9.84099Z" fill="black"/>
<path fill-rule="evenodd" clip-rule="evenodd" d="M8.54302 15.1639C12.0707 15.1639 14.9305 12.3041 14.9305 8.77642C14.9305 5.24875 12.0707 2.38892 8.54302 2.38892C5.01535 2.38892 2.15552 5.24875 2.15552 8.77642C2.15552 12.3041 5.01535 15.1639 8.54302 15.1639ZM8.54302 15.8736C12.4628 15.8736 15.6402 12.6962 15.6402 8.77642C15.6402 4.85663 12.4628 1.6792 8.54302 1.6792C4.62323 1.6792 1.4458 4.85663 1.4458 8.77642C1.4458 12.6962 4.62323 15.8736 8.54302 15.8736Z" fill="black"/>
</svg>
