<svg width="22" height="22" viewBox="0 0 22 22" fill="none" xmlns="http://www.w3.org/2000/svg">
<g clip-path="url(#clip0_0_223)">
<rect x="0.354156" y="0.180664" width="21.2917" height="21.2917" rx="10.6458" fill="black"/>
<path d="M5.67707 10.383C5.43209 10.383 5.2335 10.5816 5.2335 10.8265C5.2335 11.0715 5.43209 11.2701 5.67707 11.2701V10.383ZM16.6366 11.1402C16.8098 10.967 16.8098 10.6861 16.6366 10.5129L13.8137 7.68998C13.6404 7.51675 13.3596 7.51675 13.1863 7.68998C13.0131 7.86321 13.0131 8.14406 13.1863 8.31729L15.6956 10.8265L13.1863 13.3358C13.0131 13.509 13.0131 13.7899 13.1863 13.9631C13.3596 14.1363 13.6404 14.1363 13.8137 13.9631L16.6366 11.1402ZM5.67707 11.2701H16.3229V10.383H5.67707V11.2701Z" fill="white"/>
</g>
<defs>
<clipPath id="clip0_0_223">
<rect width="21.2917" height="21.2917" fill="white" transform="translate(0.354156 0.180664)"/>
</clipPath>
</defs>
</svg>
