<svg width="18" height="18" viewBox="0 0 18 18" fill="none" xmlns="http://www.w3.org/2000/svg">
<path d="M13.8114 12.7473L15.8905 14.8254C15.9874 14.9257 16.0411 15.0602 16.0399 15.1998C16.0387 15.3393 15.9827 15.4728 15.884 15.5715C15.7853 15.6702 15.6518 15.7262 15.5122 15.7274C15.3727 15.7286 15.2382 15.675 15.1378 15.578L13.0587 13.4989C11.7 14.6629 9.94331 15.2555 8.15715 15.1523C6.371 15.049 4.69426 14.258 3.47877 12.9451C2.26328 11.6323 1.60354 9.89964 1.63797 8.11084C1.6724 6.32203 2.39834 4.61609 3.66345 3.35098C4.92856 2.08587 6.6345 1.35993 8.42331 1.3255C10.2121 1.29107 11.9447 1.95081 13.2576 3.1663C14.5704 4.38179 15.3615 6.05853 15.4647 7.84468C15.568 9.63084 14.9754 11.3876 13.8114 12.7462V12.7473ZM8.55657 14.0993C10.1095 14.0993 11.5988 13.4824 12.6968 12.3844C13.7949 11.2863 14.4118 9.797 14.4118 8.2441C14.4118 6.6912 13.7949 5.2019 12.6968 4.10384C11.5988 3.00578 10.1095 2.38889 8.55657 2.38889C7.00367 2.38889 5.51437 3.00578 4.41631 4.10384C3.31824 5.2019 2.70136 6.6912 2.70136 8.2441C2.70136 9.797 3.31824 11.2863 4.41631 12.3844C5.51437 13.4824 7.00367 14.0993 8.55657 14.0993Z" fill="black"/>
</svg>
